<?xml version="1.0" encoding="utf-8"?>
<!-- Generator: Adobe Illustrator 25.2.1, SVG Export Plug-In . SVG Version: 6.00 Build 0)  -->
<svg version="1.1" xmlns="http://www.w3.org/2000/svg" xmlns:xlink="http://www.w3.org/1999/xlink" x="0px" y="0px"
	 viewBox="0 0 683.41 299.41" style="enable-background:new 0 0 683.41 299.41;" xml:space="preserve">
<style type="text/css">
	.st0{fill:#F15A29;}
</style>
<g id="Layer_2">
</g>
<g id="Layer_1">
	<g>
		<path class="st0" d="M41.65,69.23V229.7c0,13.74,11.14,24.89,24.89,24.89h550.35c13.74,0,24.89-11.14,24.89-24.89V69.23
			c0-13.74-11.14-24.89-24.89-24.89H66.53C52.79,44.35,41.65,55.49,41.65,69.23z M167.56,198.93c-9.43,8.27-21.69,12.41-36.78,12.41
			c-7.73,0-15.47-1.1-23.2-3.3s-15.47-5.5-23.2-9.91l13.54-33.03c6.07,4.24,11.48,7.35,16.23,9.31c4.75,1.96,9.2,2.94,13.33,2.94
			c2.9,0,5.18-0.55,6.85-1.65c1.66-1.1,2.5-2.59,2.5-4.47c0-3.28-4.16-5.77-12.49-7.49c-2.69-0.59-4.78-1.05-6.28-1.37
			c-8.81-2.15-15.55-5.96-20.22-11.44s-7.01-12.3-7.01-20.46c0-12.68,4.54-22.99,13.62-30.94c9.08-7.95,20.97-11.92,35.69-11.92
			c6.77,0,13.43,0.89,19.98,2.66c6.55,1.77,13.16,4.46,19.82,8.06l-12.89,30.86c-4.08-3.01-8.18-5.3-12.29-6.89
			c-4.11-1.58-8.1-2.38-11.96-2.38c-2.95,0-5.24,0.5-6.85,1.49c-1.61,0.99-2.42,2.38-2.42,4.15c0,3.33,5.88,6.26,17.64,8.78
			c1.88,0.43,3.33,0.75,4.35,0.97c8.11,1.83,14.5,5.56,19.17,11.2s7.01,12.46,7.01,20.46C181.7,180,176.99,190.66,167.56,198.93z
			 M279.59,208.2h-83.71V90.25h42.46v79.68h41.25V208.2z M345.41,156.07v52.13h-42.7v-52.13l-39.48-65.82h48.34l9.91,22.88
			c0.91,1.99,1.99,4.94,3.22,8.86c0.11,0.38,0.19,0.67,0.24,0.89c0.59-1.88,1.61-4.65,3.06-8.3c0.27-0.64,0.46-1.1,0.56-1.37
			l9.75-22.96h48.02L345.41,156.07z M493.25,179.43c-5.43,8.81-13.27,15.93-23.53,21.35c-5,2.58-11.33,4.46-19.01,5.64
			c-7.68,1.18-17.97,1.77-30.86,1.77h-31.18V90.25H423c10.9,0,20.21,0.6,27.92,1.81c7.71,1.21,13.98,3.08,18.81,5.6
			c10.2,5.37,18.03,12.49,23.48,21.35c5.45,8.86,8.18,18.96,8.18,30.29C501.39,160.58,498.68,170.63,493.25,179.43z M599.03,208.2
			h-79.84V90.25h78.88v31.98h-37.3v11.36h33.84v30.21h-33.84v12.41h38.27V208.2z"/>
		<path class="st0" d="M432.58,126.5h-1.85v45.68c9.56-0.05,16.54-1.92,20.95-5.6c4.4-3.68,6.61-9.44,6.61-17.28
			c0-7.68-2.11-13.4-6.32-17.16C447.74,128.38,441.29,126.5,432.58,126.5z"/>
	</g>
</g>
</svg>
