<?xml version="1.0" encoding="utf-8"?>
<!-- Generator: Adobe Illustrator 25.2.1, SVG Export Plug-In . SVG Version: 6.00 Build 0)  -->
<svg version="1.1" id="Layer_1" xmlns="http://www.w3.org/2000/svg" xmlns:xlink="http://www.w3.org/1999/xlink" x="0px" y="0px"
	 viewBox="0 0 1230.94 477.06" style="enable-background:new 0 0 1230.94 477.06;" xml:space="preserve">
<style type="text/css">
	.st0{fill:#EE6723;}
</style>
<g>
	<path class="st0" d="M275.54,113.7l-33.12,47.87c-13.54-8.14-29.52-15.97-49.69-15.97c-16.18,0-34.5,9.21-34.5,26.73
		c0,17.07,30.87,26.75,46.52,31.82c48.26,12.93,88.29,42.54,88.29,91.71V296v0.14c0,47.7-39.4,94.21-102.28,94.21
		c-41.58,0-73.52-15.32-102.56-37.33l30.23-51.23c20.24,15.04,43.97,28.21,71.6,28.21c20.16,0,42.65-9.85,42.65-33.81
		c0-21.38-31.86-31.29-51.76-37.35c-41.17-11.17-83.05-36.17-83.05-86.44c0-47.76,43.4-85.68,94.8-85.68
		C231.83,86.71,254.48,100.52,275.54,113.7z"/>
	<path class="st0" d="M392.85,93.67v230.51h131.52v59.15H331.95V93.67H392.85z"/>
	<path class="st0" d="M628.09,93.67v289.66H569V93.67H628.09z"/>
	<path class="st0" d="M762.28,93.73c83.09,0,150.35,64.84,150.35,144.8c0,79.96-67.27,144.8-150.35,144.8h-89.85V93.73H762.28z
		 M731.51,329.03h30.77c46.27,0,91.07-41.61,91.07-90.5c0-48.89-44.8-90.5-91.07-90.5h-30.77V329.03z"/>
	<path class="st0" d="M1142.75,93.73v59.14h-132.27v58.46h127.36v54.4h-127.36v58.46h132.27v59.14H951.4V93.73H1142.75z"/>
</g>
</svg>
